<svg width="159" height="154" 
    viewBox="0 0 1590 1540"
    xmlns="http://www.w3.org/2000/svg"
    xmlns:xlink="http://www.w3.org/1999/xlink" xml:space="preserve" overflow="hidden">
    <defs>
        <clipPath id="clip0">
            <rect x="1421" y="171" width="1591" height="1535"/>
        </clipPath>
    </defs>
    <g clip-path="url(#clip0)" transform="translate(-1421 -171)">
        <path d="M1934 1706 2242 1512 2550 1706Z" fill="#583928" fill-rule="evenodd"/>
        <path d="M2451.44 402.807C2395.32 358.101 2386.06 276.362 2430.77 220.238 2475.47 164.113 2557.21 154.857 2613.34 199.563 2669.46 244.269 2678.72 326.008 2634.01 382.132 2589.31 438.257 2507.57 447.513 2451.44 402.807Z" fill="#155132" fill-rule="evenodd"/>
        <path d="M2491.92 351.996C2463.85 329.643 2459.23 288.773 2481.58 260.711 2503.93 232.649 2544.8 228.021 2572.86 250.374 2600.93 272.727 2605.55 313.596 2583.2 341.659 2560.85 369.721 2519.98 374.349 2491.92 351.996Z" stroke="#FFFFFF" stroke-width="10.3125" stroke-miterlimit="8" fill="#93D17A" fill-rule="evenodd"/>
        <path d="M2477.88 401.06 2302.98 593.232 2254.94 549.509 2429.84 357.336Z" fill="#155132" fill-rule="evenodd"/>
        <path d="M2291.4 628.79 2280.89 1317.29 2215.93 1316.3 2226.45 627.799Z" fill="#155132" fill-rule="evenodd"/>
        <path d="M2226 631.529C2225.86 597.983 2238.7 565.683 2261.83 541.382L2309.59 586.832C2298.19 598.809 2291.86 614.728 2291.93 631.261Z" fill="#155132" fill-rule="evenodd"/>
        <path d="M2726.9 602.173C2675.86 551.745 2675.36 469.485 2725.79 418.44 2776.21 367.395 2858.47 366.894 2909.52 417.322 2960.56 467.75 2961.06 550.01 2910.64 601.055 2860.21 652.1 2777.95 652.601 2726.9 602.173Z" fill="#155132" fill-rule="evenodd"/>
        <path d="M2772.56 555.96C2747.03 530.746 2746.78 489.616 2772 464.094 2797.21 438.571 2838.34 438.321 2863.86 463.535 2889.39 488.749 2889.64 529.879 2864.42 555.401 2839.21 580.924 2798.08 581.174 2772.56 555.96Z" stroke="#FFFFFF" stroke-width="10.3125" stroke-miterlimit="8" fill="#93D17A" fill-rule="evenodd"/>
        <path d="M2787.98 586.566 2285.79 1094.91 2239.57 1049.25 2741.77 540.913Z" fill="#155132" fill-rule="evenodd"/>
        <path d="M2752 879C2752 807.203 2810.2 749 2882 749 2953.8 749 3012 807.203 3012 879 3012 950.797 2953.8 1009 2882 1009 2810.2 1009 2752 950.797 2752 879Z" fill="#155132" fill-rule="evenodd"/>
        <path d="M2817 879C2817 843.102 2846.1 814 2882 814 2917.9 814 2947 843.102 2947 879 2947 914.898 2917.9 944 2882 944 2846.1 944 2817 914.898 2817 879Z" stroke="#FFFFFF" stroke-width="10.3125" stroke-miterlimit="8" fill="#93D17A" fill-rule="evenodd"/>
        <rect x="2668" y="849" width="130" height="64.9999" fill="#155132"/>
        <path d="M2622.23 933.788 2423.4 1156.85 2374.91 1113.63 2573.74 890.563Z" fill="#155132" fill-rule="evenodd"/>
        <path d="M2563.17 903.505C2589.77 866.219 2634.02 845.68 2679.67 849.439L2674.38 913.649C2651.36 911.754 2629.03 922.113 2615.62 940.92Z" fill="#155132" fill-rule="evenodd"/>
        <rect x="2344" y="1193" width="65" height="247" fill="#155132"/>
        <path d="M2343.52 1197.7C2343.84 1166.28 2355.53 1136.04 2376.44 1112.59L2424.51 1155.43C2413.96 1167.26 2408.06 1182.51 2407.9 1198.35Z" fill="#155132" fill-rule="evenodd"/>
        <path d="M2408.55 1548C2372.65 1547.62 2343.75 1503.67 2344 1449.82 2344.25 1396.24 2373.28 1353 2409 1353L2409 1450.5Z" fill="#155132" fill-rule="evenodd"/>
        <path d="M2446.19 1640.83C2364.25 1700.36 2260.82 1697.68 2215.17 1634.84 2169.51 1572.01 2198.93 1472.81 2280.87 1413.28 2295.14 1514.35 2354.47 1596.02 2446.19 1640.83Z" fill="#583928" fill-rule="evenodd"/>
        <path d="M2219.47 1179.16C2223.68 1103.52 2256.07 1032.26 2310.17 979.606L2353.87 1025.11C2311.27 1066.72 2285.77 1122.99 2282.46 1182.71Z" fill="#155132" fill-rule="evenodd"/>
        <path d="M183.386 285.865C82.1049 285.865 0 221.872 0 142.932-2.33475e-14 63.993 82.1049-1.81972e-14 183.386-3.63944e-14 135.525 91.6373 135.525 194.227 183.386 285.865Z" fill="#583928" fill-rule="evenodd" transform="matrix(-0.86174 -0.50735 -0.50735 0.86174 2341.86 1487.24)"/>
        <path d="M1421.93 710.338C1578.89 686.788 1712.78 674.557 1808.04 719.92 1903.29 765.283 2006.29 944.176 1993.48 982.515 1956.69 1043.18 1754.51 1060.41 1659.25 1015.05 1563.99 969.684 1460.24 808.974 1421.93 710.338Z" fill="#2D6A3E" fill-rule="evenodd"/>
        <path d="M1743.32 818.459C1927.27 895.773 2258.7 1178.79 2274.54 1310.61L2184.13 1328.41C2171.54 1226.5 1984.87 975.22 1737.28 839.036 1562.32 764.97 1657.03 792.838 1743.32 818.459Z" fill="#155132" fill-rule="evenodd"/>
        <path d="M1668.91 198.161C1823.04 236.074 1951.52 275.678 2022.37 353.858 2093.22 432.039 2120.44 636.658 2094.01 667.245 2036.91 709.365 1843.38 648.41 1772.53 570.23 1701.68 492.049 1666.84 303.958 1668.91 198.161Z" fill="#2D6A3E" fill-rule="evenodd"/>
        <path d="M1928.95 439.035C2078.65 570.965 2281.06 969.802 2254.04 1099.8L2207.15 1232.86C2224.45 1131.15 2107.91 664.632 1916.67 456.613 1774.45 330.627 1855.33 387.239 1928.95 439.035Z" fill="#155132" fill-rule="evenodd"/>
        <path d="M0 98.0003 44.2 0 221 0 176.8 98.0003Z" fill="#583928" fill-rule="evenodd" transform="matrix(-1.83697e-16 -1 -1 1.83697e-16 2282 1501)"/>
    </g>
</svg>