<svg xmlns="http://www.w3.org/2000/svg" xml:space="preserve" width="159" height="154" overflow="hidden" viewBox="0 0 1590 1540"><defs><clipPath id="clip0"><path d="M1421 171h1591v1535H1421Z"/></clipPath></defs><g clip-path="url(#clip0)" transform="translate(-1421 -171)"><path fill="#583928" fill-rule="evenodd" d="m1934 1706 308-194 308 194Z"/><path fill="#155132" fill-rule="evenodd" d="M2451.44 402.807c-56.12-44.706-65.38-126.445-20.67-182.569 44.7-56.125 126.44-65.381 182.57-20.675 56.12 44.706 65.38 126.445 20.67 182.569-44.7 56.125-126.44 65.381-182.57 20.675"/><path fill="#93d17a" fill-rule="evenodd" stroke="#fff" stroke-miterlimit="8" stroke-width="10.312" d="M2491.92 351.996c-28.07-22.353-32.69-63.223-10.34-91.285s63.22-32.69 91.28-10.337c28.07 22.353 32.69 63.222 10.34 91.285s-63.22 32.69-91.28 10.337Z"/><path fill="#155132" fill-rule="evenodd" d="m2477.88 401.06-174.9 192.172-48.04-43.723 174.9-192.173Z"/><path fill="#155132" fill-rule="evenodd" d="m2291.4 628.79-10.51 688.5-64.96-.99 10.52-688.501Z"/><path fill="#155132" fill-rule="evenodd" d="M2226 631.529a129.97 129.97 0 0 1 35.83-90.147l47.76 45.45a64.05 64.05 0 0 0-17.66 44.429Z"/><path fill="#155132" fill-rule="evenodd" d="M2726.9 602.173c-51.04-50.428-51.54-132.688-1.11-183.733 50.42-51.045 132.68-51.546 183.73-1.118 51.04 50.428 51.54 132.688 1.12 183.733-50.43 51.045-132.69 51.546-183.74 1.118"/><path fill="#93d17a" fill-rule="evenodd" stroke="#fff" stroke-miterlimit="8" stroke-width="10.312" d="M2772.56 555.96c-25.53-25.214-25.78-66.344-.56-91.866 25.21-25.523 66.34-25.773 91.86-.559 25.53 25.214 25.78 66.344.56 91.866-25.21 25.523-66.34 25.773-91.86.559Z"/><path fill="#155132" fill-rule="evenodd" d="m2787.98 586.566-502.19 508.344-46.22-45.66 502.2-508.337Z"/><path fill="#155132" fill-rule="evenodd" d="M2752 879c0-71.797 58.2-130 130-130s130 58.203 130 130-58.2 130-130 130-130-58.203-130-130"/><path fill="#93d17a" fill-rule="evenodd" stroke="#fff" stroke-miterlimit="8" stroke-width="10.312" d="M2817 879c0-35.898 29.1-65 65-65s65 29.102 65 65-29.1 65-65 65-65-29.102-65-65Z"/><path fill="#155132" d="M2668 849h130v65h-130Z"/><path fill="#155132" fill-rule="evenodd" d="M2622.23 933.788 2423.4 1156.85l-48.49-43.22 198.83-223.067Z"/><path fill="#155132" fill-rule="evenodd" d="M2563.17 903.505c26.6-37.286 70.85-57.825 116.5-54.066l-5.29 64.21a65.57 65.57 0 0 0-58.76 27.271Z"/><path fill="#155132" d="M2344 1193h65v247h-65Z"/><path fill="#155132" fill-rule="evenodd" d="M2343.52 1197.7c.32-31.42 12.01-61.66 32.92-85.11l48.07 42.84a65.48 65.48 0 0 0-16.61 42.92Z"/><path fill="#155132" fill-rule="evenodd" d="M2408.55 1548c-35.9-.38-64.8-44.33-64.55-98.18.25-53.58 29.28-96.82 65-96.82v97.5Z"/><path fill="#583928" fill-rule="evenodd" d="M2446.19 1640.83c-81.94 59.53-185.37 56.85-231.02-5.99-45.66-62.83-16.24-162.03 65.7-221.56 14.27 101.07 73.6 182.74 165.32 227.55"/><path fill="#155132" fill-rule="evenodd" d="M2219.47 1179.16c4.21-75.64 36.6-146.9 90.7-199.554l43.7 45.504c-42.6 41.61-68.1 97.88-71.41 157.6Z"/><path fill="#583928" fill-rule="evenodd" d="M2038.795 1640.54c87.278 51.385 190.498 37.896 230.549-30.13 40.05-68.025 1.763-164.826-85.515-216.21-5.248 103.249-57.297 191.655-145.034 246.34"/><path fill="#2d6a3e" fill-rule="evenodd" d="M1421.93 710.338c156.96-23.55 290.85-35.781 386.11 9.582 95.25 45.363 198.25 224.256 185.44 262.595-36.79 60.665-238.97 77.895-334.23 32.535-95.26-45.366-199.01-206.076-237.32-304.712"/><path fill="#155132" fill-rule="evenodd" d="M1743.32 818.459c183.95 77.314 515.38 360.331 531.22 492.151l-90.41 17.8c-12.59-101.91-199.26-353.19-446.85-489.374-174.96-74.066-80.25-46.198 6.04-20.577"/><path fill="#2d6a3e" fill-rule="evenodd" d="M1668.91 198.161c154.13 37.913 282.61 77.517 353.46 155.697s98.07 282.8 71.64 313.387c-57.1 42.12-250.63-18.835-321.48-97.015s-105.69-266.272-103.62-372.069"/><path fill="#155132" fill-rule="evenodd" d="M1928.95 439.035c149.7 131.93 352.11 530.767 325.09 660.765l-46.89 133.06c17.3-101.71-99.24-568.228-290.48-776.247-142.22-125.986-61.34-69.374 12.28-17.578"/><path fill="#583928" fill-rule="evenodd" d="m2184 1501 98-44.2V1280l-98 44.2Z"/></g></svg>