<svg xmlns="http://www.w3.org/2000/svg" xml:space="preserve" width="159" height="154" overflow="hidden" viewBox="0 0 1590 1540"><defs><clipPath id="clip0"><path d="M2004 497h1590v1536H2004Z"/></clipPath></defs><g clip-path="url(#clip0)" transform="translate(-2004 -497)"><path fill="#583928" fill-rule="evenodd" d="m2516 2033 308-194 308 194Z"/><path fill="#155132" fill-rule="evenodd" d="M3033.8 729.181c-56.13-44.706-65.38-126.445-20.68-182.57 44.71-56.124 126.45-65.38 182.57-20.674 56.13 44.705 65.38 126.445 20.68 182.569-44.71 56.124-126.45 65.381-182.57 20.675"/><path fill="#93d17a" fill-rule="evenodd" stroke="#fff" stroke-miterlimit="8" stroke-width="9" d="M3074.27 678.37c-28.06-22.353-32.69-63.223-10.34-91.285 22.36-28.062 63.23-32.69 91.29-10.337s32.69 63.222 10.33 91.284c-22.35 28.063-63.22 32.691-91.28 10.338Z"/><path fill="#155132" fill-rule="evenodd" d="m3060.23 727.433-174.89 192.173-48.05-43.724 174.9-192.172Z"/><path fill="#155132" fill-rule="evenodd" d="m2873.75 955.164-10.51 688.506-64.95-1 10.51-688.498Z"/><path fill="#155132" fill-rule="evenodd" d="M2808 958.029c-.14-33.504 12.77-65.757 36-89.983l47.58 45.277c-11.55 11.948-17.97 27.883-17.9 44.439Z"/><path fill="#155132" fill-rule="evenodd" d="M3309.26 928.547c-51.05-50.428-51.55-132.688-1.12-183.733s132.69-51.546 183.73-1.118c51.05 50.428 51.55 132.688 1.12 183.733s-132.69 51.545-183.73 1.118"/><path fill="#93d17a" fill-rule="evenodd" stroke="#fff" stroke-miterlimit="8" stroke-width="9" d="M3354.91 882.334c-25.52-25.214-25.77-66.344-.56-91.867 25.21-25.522 66.34-25.772 91.87-.558 25.52 25.213 25.77 66.343.56 91.866-25.22 25.523-66.35 25.773-91.87.559Z"/><path fill="#155132" fill-rule="evenodd" d="m3370.33 912.94-502.19 508.34-46.21-45.65 502.19-508.344Z"/><path fill="#155132" fill-rule="evenodd" d="M3334 1206c0-71.8 58.2-130 130-130s130 58.2 130 130-58.2 130-130 130-130-58.2-130-130"/><path fill="#93d17a" fill-rule="evenodd" stroke="#fff" stroke-miterlimit="8" stroke-width="9" d="M3399 1206c0-35.9 29.1-65 65-65s65 29.1 65 65-29.1 65-65 65-65-29.1-65-65Z"/><path fill="#155132" d="M3250 1175h130v65h-130Z"/><path fill="#155132" fill-rule="evenodd" d="m3204.59 1260.16-198.84 223.06-48.49-43.22 198.83-223.06Z"/><path fill="#155132" fill-rule="evenodd" d="M3146.17 1229.5c26.6-37.28 70.85-57.82 116.5-54.06l-5.29 64.21a65.55 65.55 0 0 0-58.76 27.27Z"/><path fill="#155132" d="M2926 1519h65v247h-65Z"/><path fill="#155132" fill-rule="evenodd" d="M2925.87 1524.07c.32-31.42 12.02-61.65 32.92-85.11l48.07 42.84a65.6 65.6 0 0 0-16.61 42.93Z"/><path fill="#155132" fill-rule="evenodd" d="M2990.55 1875c-35.9-.38-64.8-44.33-64.55-98.18.25-53.58 29.28-96.82 65-96.82v97.5Z"/><path fill="#583928" fill-rule="evenodd" d="M3028.54 1967.2c-81.94 59.53-185.37 56.85-231.02-5.98-45.65-62.84-16.24-162.04 65.7-221.57 14.28 101.08 73.61 182.74 165.32 227.55"/><path fill="#155132" fill-rule="evenodd" d="M2802.47 1506.18c4.19-75.56 36.45-146.75 90.36-199.4l43.63 45.43c-42.43 41.62-67.81 97.85-71.11 157.52Z"/><path fill="#583928" fill-rule="evenodd" d="M2621.155 1966.92c87.278 51.385 190.498 37.896 230.548-30.13s1.764-164.826-85.514-216.21c-5.249 103.249-57.297 191.655-145.034 246.34"/><path fill="#2d6a3e" fill-rule="evenodd" d="M2004.28 1036.71c156.97-23.55 290.85-35.78 386.11 9.58 95.26 45.37 198.25 224.26 185.44 262.6-36.79 60.67-238.97 77.89-334.22 32.53-95.26-45.36-199.01-206.07-237.33-304.71"/><path fill="#155132" fill-rule="evenodd" d="M2325.67 1144.83c183.95 77.32 515.38 360.33 531.23 492.16l-90.41 17.8c-12.6-101.92-199.27-353.2-446.86-489.38-174.96-74.07-80.25-46.2 6.04-20.58"/><path fill="#2d6a3e" fill-rule="evenodd" d="M2251.27 524.535c154.12 37.912 282.6 77.516 353.45 155.697s98.07 282.799 71.64 313.387c-57.09 42.121-250.63-18.835-321.48-97.015s-105.69-266.272-103.61-372.069"/><path fill="#155132" fill-rule="evenodd" d="M2511.3 765.409c149.7 131.93 352.11 530.771 325.1 660.771l-46.89 133.05c17.29-101.7-99.25-568.225-290.49-776.243-142.22-125.986-61.33-69.374 12.28-17.578"/><path fill="#583928" fill-rule="evenodd" d="m2766 1827 98-44.2V1606l-98 44.2Z"/></g></svg>