<svg width="159" height="154" 
    viewBox="0 0 1590 1540"
    xmlns="http://www.w3.org/2000/svg"
    xmlns:xlink="http://www.w3.org/1999/xlink" xml:space="preserve" overflow="hidden">
    <defs>
        <clipPath id="clip0">
            <rect x="2004" y="497" width="1590" height="1536"/>
        </clipPath>
    </defs>
    <g clip-path="url(#clip0)" transform="translate(-2004 -497)">
        <path d="M2516 2033 2824 1839 3132 2033Z" fill="#583928" fill-rule="evenodd"/>
        <path d="M3033.8 729.181C2977.67 684.475 2968.42 602.736 3013.12 546.611 3057.83 490.487 3139.57 481.231 3195.69 525.937 3251.82 570.642 3261.07 652.382 3216.37 708.506 3171.66 764.63 3089.92 773.887 3033.8 729.181Z" fill="#155132" fill-rule="evenodd"/>
        <path d="M3074.27 678.37C3046.21 656.017 3041.58 615.147 3063.93 587.085 3086.29 559.023 3127.16 554.395 3155.22 576.748 3183.28 599.101 3187.91 639.97 3165.55 668.032 3143.2 696.095 3102.33 700.723 3074.27 678.37Z" stroke="#FFFFFF" stroke-width="2.29167" stroke-miterlimit="8" fill="#93D17A" fill-rule="evenodd"/>
        <path d="M3060.23 727.433 2885.34 919.606 2837.29 875.882 3012.19 683.71Z" fill="#155132" fill-rule="evenodd"/>
        <path d="M2873.75 955.164 2863.24 1643.67 2798.29 1642.67 2808.8 954.172Z" fill="#155132" fill-rule="evenodd"/>
        <path d="M2808 958.029C2807.86 924.525 2820.77 892.272 2844 868.046L2891.58 913.323C2880.03 925.271 2873.61 941.206 2873.68 957.762Z" fill="#155132" fill-rule="evenodd"/>
        <path d="M3309.26 928.547C3258.21 878.119 3257.71 795.859 3308.14 744.814 3358.57 693.769 3440.83 693.268 3491.87 743.696 3542.92 794.124 3543.42 876.384 3492.99 927.429 3442.56 978.474 3360.3 978.974 3309.26 928.547Z" fill="#155132" fill-rule="evenodd"/>
        <path d="M3354.91 882.334C3329.39 857.12 3329.14 815.99 3354.35 790.467 3379.56 764.945 3420.69 764.695 3446.22 789.909 3471.74 815.122 3471.99 856.252 3446.78 881.775 3421.56 907.298 3380.43 907.548 3354.91 882.334Z" stroke="#FFFFFF" stroke-width="2.29167" stroke-miterlimit="8" fill="#93D17A" fill-rule="evenodd"/>
        <path d="M3370.33 912.94 2868.14 1421.28 2821.93 1375.63 3324.12 867.286Z" fill="#155132" fill-rule="evenodd"/>
        <path d="M3334 1206C3334 1134.2 3392.2 1076 3464 1076 3535.8 1076 3594 1134.2 3594 1206 3594 1277.8 3535.8 1336 3464 1336 3392.2 1336 3334 1277.8 3334 1206Z" fill="#155132" fill-rule="evenodd"/>
        <path d="M3399 1206C3399 1170.1 3428.1 1141 3464 1141 3499.9 1141 3529 1170.1 3529 1206 3529 1241.9 3499.9 1271 3464 1271 3428.1 1271 3399 1241.9 3399 1206Z" stroke="#FFFFFF" stroke-width="2.29167" stroke-miterlimit="8" fill="#93D17A" fill-rule="evenodd"/>
        <rect x="3250" y="1175" width="130" height="65" fill="#155132"/>
        <path d="M3204.59 1260.16 3005.75 1483.22 2957.26 1440 3156.09 1216.94Z" fill="#155132" fill-rule="evenodd"/>
        <path d="M3146.17 1229.5C3172.77 1192.22 3217.02 1171.68 3262.67 1175.44L3257.38 1239.65C3234.36 1237.75 3212.03 1248.11 3198.62 1266.92Z" fill="#155132" fill-rule="evenodd"/>
        <rect x="2926" y="1519" width="65" height="247" fill="#155132"/>
        <path d="M2925.87 1524.07C2926.19 1492.65 2937.89 1462.42 2958.79 1438.96L3006.86 1481.8C2996.32 1493.63 2990.42 1508.88 2990.25 1524.73Z" fill="#155132" fill-rule="evenodd"/>
        <path d="M2990.55 1875C2954.65 1874.62 2925.75 1830.67 2926 1776.82 2926.25 1723.24 2955.28 1680 2991 1680L2991 1777.5Z" fill="#155132" fill-rule="evenodd"/>
        <path d="M3028.54 1967.2C2946.6 2026.73 2843.17 2024.05 2797.52 1961.22 2751.87 1898.38 2781.28 1799.18 2863.22 1739.65 2877.5 1840.73 2936.83 1922.39 3028.54 1967.2Z" fill="#583928" fill-rule="evenodd"/>
        <path d="M2802.47 1506.18C2806.66 1430.62 2838.92 1359.43 2892.83 1306.78L2936.46 1352.21C2894.03 1393.83 2868.65 1450.06 2865.35 1509.73Z" fill="#155132" fill-rule="evenodd"/>
        <path d="M183.386 285.865C82.1049 285.865 0 221.872 0 142.932-2.33475e-14 63.993 82.1049-1.81972e-14 183.386-3.63944e-14 135.525 91.6373 135.525 194.227 183.386 285.865Z" fill="#583928" fill-rule="evenodd" transform="matrix(-0.86174 -0.50735 -0.50735 0.86174 2924.22 1813.62)"/>
        <path d="M2004.28 1036.71C2161.25 1013.16 2295.13 1000.93 2390.39 1046.29 2485.65 1091.66 2588.64 1270.55 2575.83 1308.89 2539.04 1369.56 2336.86 1386.78 2241.61 1341.42 2146.35 1296.06 2042.6 1135.35 2004.28 1036.71Z" fill="#2D6A3E" fill-rule="evenodd"/>
        <path d="M2325.67 1144.83C2509.62 1222.15 2841.05 1505.16 2856.9 1636.99L2766.49 1654.79C2753.89 1552.87 2567.22 1301.59 2319.63 1165.41 2144.67 1091.34 2239.38 1119.21 2325.67 1144.83Z" fill="#155132" fill-rule="evenodd"/>
        <path d="M2251.27 524.535C2405.39 562.447 2533.87 602.051 2604.72 680.232 2675.57 758.412 2702.79 963.031 2676.36 993.619 2619.27 1035.74 2425.73 974.784 2354.88 896.604 2284.03 818.423 2249.19 630.332 2251.27 524.535Z" fill="#2D6A3E" fill-rule="evenodd"/>
        <path d="M2511.3 765.409C2661 897.339 2863.41 1296.18 2836.4 1426.18L2789.51 1559.23C2806.8 1457.53 2690.26 991.005 2499.02 782.987 2356.8 657.001 2437.69 713.613 2511.3 765.409Z" fill="#155132" fill-rule="evenodd"/>
        <path d="M0 98 44.2 0 221 0 176.8 98Z" fill="#583928" fill-rule="evenodd" transform="matrix(-1.83697e-16 -1 -1 1.83697e-16 2864 1827)"/>
    </g>
</svg>